<?xml version="1.0" encoding="utf-8"?>
<!-- Generator: Adobe Illustrator 26.1.0, SVG Export Plug-In . SVG Version: 6.00 Build 0)  -->
<svg version="1.1" id="Layer_1" xmlns="http://www.w3.org/2000/svg" xmlns:xlink="http://www.w3.org/1999/xlink" x="0px" y="0px"
	 viewBox="0 0 47.8 49.4" style="enable-background:new 0 0 47.8 49.4;" xml:space="preserve">
<style type="text/css">
	.st0{fill:#FFFFFF;}
</style>
<path class="st0" d="M31.5,21.5v8.4c-0.6,0-1.2,0-1.7,0c-0.1,0-0.3-0.2-0.4-0.4c-0.7-1.1-1.4-2.3-2.1-3.4c-0.3-0.4-0.5-0.8-0.8-1.3
	c-0.1-0.1-0.2-0.3-0.4-0.3v5.4h-1.7v-8.4c0.6,0,1.1,0,1.6,0c0.3,0,0.4,0.2,0.5,0.4c0.8,1.3,1.7,2.7,2.5,4c0.2,0.4,0.5,0.8,0.7,1.1
	c0,0,0.1,0,0.1,0v-5.5H31.5L31.5,21.5z"/>
<path class="st0" d="M46.2,29.5c-0.7,0.5-1.4,0.7-2.3,0.7c-1,0-2-0.2-2.9-0.8c-0.7-0.5-0.9-1.3-1-2.2h1.7c0,0.1,0.1,0.2,0.1,0.3
	c0.1,0.6,0.5,0.9,1.1,1.1c0.6,0.2,1.2,0.2,1.7-0.1c0.4-0.1,0.6-0.4,0.6-0.8c0-0.4-0.2-0.7-0.5-0.9c-0.6-0.2-1.3-0.4-1.9-0.6
	c-0.5-0.2-0.9-0.3-1.4-0.5C40,25,40,23,41.2,22.1c0.7-0.6,1.6-0.8,2.5-0.8c0.7,0,1.4,0.2,2.1,0.6c0.8,0.5,1.1,1.2,1.1,2
	c-0.4,0.2-1,0.2-1.8,0.1c0-0.1-0.1-0.2-0.1-0.2c-0.2-0.7-0.6-0.9-1.2-1c-0.4,0-0.8,0-1.1,0.2c-0.4,0.1-0.5,0.4-0.5,0.8
	c0,0.4,0.2,0.6,0.5,0.7c0.7,0.2,1.4,0.4,2.1,0.6c0.3,0.1,0.7,0.2,1,0.3C47.8,26.2,47.4,28.7,46.2,29.5L46.2,29.5z"/>
<path class="st0" d="M39.9,21.5c-0.9,2.8-1.8,5.6-2.8,8.4H35c-0.9-2.8-1.8-5.6-2.7-8.4h1.9c0.6,1.9,1.2,3.8,1.8,5.7c0,0,0.1,0,0.1,0
	c0.6-1.9,1.2-3.8,1.8-5.7L39.9,21.5L39.9,21.5z"/>
<path class="st0" d="M11.4,24.5c-2,1.9-4,3.9-6,5.9c2.1,2.1,4.1,4,6,6c2-2,4-4,6-6C15.4,28.5,13.4,26.5,11.4,24.5z M6.7,30.5
	c1.6-1.6,3.2-3.1,4.7-4.7c1.5,1.5,3.1,3.1,4.7,4.6c-1.6,1.6-3.1,3.2-4.7,4.7C9.8,33.6,8.3,32,6.7,30.5z"/>
<path class="st0" d="M5.4,19.6c-1.6,1.6-3.2,3.2-4.8,4.8c1.6,1.6,3.2,3.2,4.7,4.7c1.6-1.6,3.2-3.2,4.8-4.7
	C8.5,22.8,6.9,21.2,5.4,19.6z M1.9,24.4c1.1-1.1,2.3-2.3,3.5-3.4c1.1,1.1,2.3,2.3,3.5,3.5c-1.2,1.1-2.3,2.3-3.5,3.4
	C4.3,26.7,3.1,25.5,1.9,24.4z"/>
<path class="st0" d="M11.4,14.7c-1.2,1.2-2.4,2.3-3.6,3.6c1.2,1.2,2.4,2.4,3.5,3.5c1.2-1.2,2.4-2.4,3.6-3.5
	C13.8,17.1,12.6,15.9,11.4,14.7z M9.2,18.4c0.7-0.7,1.5-1.5,2.3-2.3c0.7,0.7,1.5,1.5,2.2,2.2c-0.7,0.7-1.5,1.5-2.3,2.3
	C10.7,19.9,9.9,19.1,9.2,18.4z"/>
<path class="st0" d="M17.4,22c-0.8,0.8-1.5,1.5-2.4,2.4c0.9,0.8,1.6,1.6,2.4,2.3c0.8-0.8,1.6-1.5,2.3-2.3C19,23.6,18.2,22.8,17.4,22
	z M16.3,24.3c0.4-0.3,0.8-0.7,1.2-1.1c0.3,0.3,0.7,0.7,1.1,1.1c-0.4,0.4-0.8,0.8-1.1,1.1C17.1,25.1,16.7,24.7,16.3,24.3z"/>
<path class="st0" d="M11.4,26.9c-1.5,1.4-3.3,3.3-3.5,3.6c1.2,1.2,2.4,2.4,3.5,3.5c1.2-1.2,2.4-2.4,3.6-3.6
	C13.8,29.3,12.6,28.1,11.4,26.9z M9.1,30.5c0.8-0.7,1.6-1.5,2.3-2.2c0.7,0.7,1.5,1.5,2.3,2.2c-0.8,0.8-1.5,1.6-2.3,2.3
	C10.7,32,9.9,31.2,9.1,30.5z"/>
<path class="st0" d="M5.4,22.1c-0.7,0.7-1.5,1.5-2.3,2.3c0.8,0.7,1.6,1.5,2.3,2.2c0.8-0.7,1.6-1.5,2.3-2.3
	C6.9,23.6,6.1,22.8,5.4,22.1z M4.2,24.3C4.6,24,5,23.6,5.4,23.2c0.4,0.4,0.8,0.8,1.1,1.2c-0.4,0.4-0.7,0.7-1.1,1.1
	C5,25.2,4.6,24.8,4.2,24.3z"/>
<path class="st0" d="M12.5,18.3c-0.4,0.4-0.7,0.8-1.1,1.1c-0.4-0.3-0.7-0.7-1.2-1.1c0.4-0.3,0.8-0.7,1.2-1
	C11.8,17.5,12.2,17.9,12.5,18.3z"/>
<path class="st0" d="M12.6,30.5c-0.4,0.4-0.8,0.8-1.2,1.1c-0.4-0.4-0.8-0.7-1.2-1.1c0.4-0.4,0.8-0.8,1.2-1.2
	C11.8,29.7,12.2,30.1,12.6,30.5z"/>
</svg>
