<?xml version="1.0" encoding="UTF-8"?><svg id="a" xmlns="http://www.w3.org/2000/svg" viewBox="0 0 46.6 21.64"><defs><style>.b{fill:#fff;}</style></defs><path class="b" d="M30.94,6.77V15.21c-.6,0-1.16,.03-1.72-.02-.14-.01-.29-.22-.39-.37-.7-1.12-1.4-2.26-2.1-3.39-.26-.42-.51-.84-.77-1.26-.09-.14-.2-.26-.4-.35v5.36h-1.71V6.74c.55,0,1.06,.01,1.57,0,.27,0,.35,.18,.46,.36,.83,1.34,1.66,2.68,2.49,4.02,.23,.38,.48,.76,.71,1.14,.04,0,.08-.02,.12-.03V6.77h1.73Z"/><path class="b" d="M45.57,14.76c-.69,.46-1.45,.65-2.25,.68-1.04,.03-2.04-.16-2.88-.84-.67-.54-.93-1.25-.96-2.16h1.74c.05,.12,.1,.22,.12,.33,.13,.58,.5,.93,1.05,1.08,.58,.16,1.16,.16,1.73-.05,.36-.13,.61-.39,.64-.79,.04-.42-.18-.72-.53-.86-.62-.24-1.26-.4-1.89-.6-.47-.15-.94-.29-1.38-.5-1.54-.75-1.53-2.75-.37-3.72,.74-.62,1.62-.79,2.55-.76,.73,.02,1.42,.16,2.05,.56,.76,.49,1.07,1.19,1.13,2.04-.4,.15-1,.17-1.77,.08-.03-.07-.08-.16-.1-.24-.15-.67-.64-.93-1.25-.96-.37-.02-.75,.04-1.11,.15-.36,.11-.51,.43-.51,.81,0,.36,.23,.56,.53,.66,.68,.22,1.38,.41,2.07,.62,.33,.1,.65,.2,.96,.33,2.07,.84,1.68,3.33,.43,4.17h0Z"/><path class="b" d="M39.3,6.76c-.93,2.82-1.84,5.6-2.77,8.42h-2.15c-.89-2.77-1.79-5.56-2.73-8.44h1.93c.61,1.94,1.21,3.84,1.82,5.75,.04,0,.09,0,.13,.01,.61-1.91,1.23-3.82,1.85-5.74h1.92Z"/><path class="b" d="M10.81,9.8c-1.97,1.92-3.99,3.9-6.02,5.88,2.06,2.05,4.06,4.04,5.99,5.96,1.97-1.96,3.98-3.96,6.01-5.98-1.99-1.96-4.02-3.95-5.97-5.86Zm-4.71,5.93c1.57-1.55,3.17-3.13,4.73-4.66,1.51,1.49,3.12,3.09,4.69,4.65-1.56,1.56-3.15,3.15-4.72,4.73-1.56-1.57-3.14-3.15-4.7-4.71Z"/><path class="b" d="M4.77,4.9c-1.56,1.56-3.16,3.15-4.77,4.76,1.61,1.59,3.21,3.18,4.71,4.66,1.59-1.56,3.2-3.15,4.77-4.7-1.57-1.58-3.16-3.17-4.71-4.73ZM1.32,9.65c1.14-1.13,2.33-2.31,3.47-3.45,1.1,1.09,2.29,2.27,3.52,3.48-1.15,1.14-2.34,2.32-3.48,3.45-1.16-1.15-2.35-2.34-3.51-3.48Z"/><path class="b" d="M10.82,0c-1.17,1.16-2.37,2.35-3.58,3.55,1.22,1.21,2.41,2.39,3.52,3.5,1.18-1.17,2.38-2.36,3.58-3.54-1.16-1.16-2.35-2.35-3.51-3.51Zm-2.23,3.63c.74-.75,1.52-1.53,2.26-2.27,.67,.68,1.46,1.46,2.19,2.19-.73,.73-1.51,1.51-2.27,2.27-.7-.7-1.47-1.48-2.18-2.19Z"/><path class="b" d="M16.78,7.27c-.75,.75-1.54,1.55-2.36,2.37,.85,.82,1.64,1.58,2.42,2.34,.79-.77,1.58-1.55,2.34-2.29-.79-.79-1.59-1.59-2.41-2.42Zm-1.07,2.33c.37-.34,.75-.69,1.2-1.1,.34,.33,.72,.71,1.14,1.12-.42,.42-.79,.8-1.14,1.14-.39-.38-.78-.76-1.2-1.16Z"/><path class="b" d="M10.78,12.14c-1.5,1.37-3.35,3.29-3.51,3.64,1.18,1.18,2.37,2.35,3.48,3.47,1.19-1.17,2.4-2.37,3.6-3.55-1.17-1.16-2.37-2.35-3.58-3.56Zm-2.28,3.57c.78-.74,1.58-1.51,2.33-2.23,.72,.7,1.51,1.47,2.26,2.2-.76,.77-1.55,1.55-2.31,2.32-.73-.73-1.51-1.5-2.29-2.28Z"/><path class="b" d="M4.8,7.36c-.75,.75-1.54,1.54-2.34,2.34,.75,.73,1.55,1.5,2.27,2.19,.76-.73,1.57-1.51,2.34-2.26-.77-.77-1.56-1.56-2.27-2.28Zm-1.16,2.24c.37-.37,.74-.75,1.13-1.14,.38,.4,.75,.79,1.11,1.17-.36,.36-.75,.74-1.14,1.13-.33-.35-.7-.74-1.1-1.16Z"/><path class="b" d="M11.93,3.56c-.36,.36-.74,.75-1.1,1.1-.35-.35-.74-.73-1.16-1.14,.39-.31,.81-.66,1.25-1.02,.26,.27,.64,.68,1.01,1.06Z"/><path class="b" d="M11.98,15.72c-.39,.37-.78,.75-1.15,1.11-.39-.36-.8-.73-1.21-1.1,.42-.41,.81-.79,1.21-1.18,.37,.38,.76,.78,1.15,1.17Z"/></svg>