<?xml version="1.0" encoding="utf-8"?>
<!-- Generator: Adobe Illustrator 26.0.2, SVG Export Plug-In . SVG Version: 6.00 Build 0)  -->
<svg version="1.1" id="Layer_1" xmlns="http://www.w3.org/2000/svg" xmlns:xlink="http://www.w3.org/1999/xlink" x="0px" y="0px"
	 viewBox="0 0 47.8 49.4" style="enable-background:new 0 0 47.8 49.4;" xml:space="preserve">
<style type="text/css">
	.st0{fill:#FFFFFF;}
</style>
<g>
	<g>
		<g>
			<path class="st0" d="M47.7,8.3c0-4.8-2.5-8.1-6.5-8.2c-9.5-0.2-19-0.2-28.5,0.2C6.7,0.6,1.3,5.7,0,11.4c1,0.4,2,0.8,3.1,1.1
				c-0.2,0.6-0.4,1.3-0.7,2c1.3,1,2.5,1.9,3.8,3v4c0,6.2,0,12.5,0,18.7c0,4.1,2.4,7.7,5.9,8.1c3.8,0.4,7.6,0.1,11.2,0.1
				c2.7-4.4,2-9.7,5.2-13.5c0.1,2.3-0.1,4.5-0.7,6.6c-0.6,2.1-1.5,4.1-2.3,6.2c0.5,0.2,0.3,0.2,0.9,0.4c1-1.8,2-3.5,3.4-5.9
				c1.9,2.1,3.5,3.9,5.7,6.3c0.6,0,1.7,0.1,2.8,0.1c6,0,9.5-3.5,9.6-9.5c0-2.6,0-5.2,0-7.9C47.8,23.6,47.8,16,47.7,8.3z M29.6,5.3
				c-0.8,0.7-1.4,1.3-2.1,2c-0.7-0.4-1.4-0.8-2.8-1.5c1-1,1.6-1.6,2.3-2.2C28.1,4.3,28.8,4.7,29.6,5.3z M31.5,16.5
				c-0.7,0.5-1.7,1.1-2.8,1.8c-1.3-0.8-2.5-1.5-3.9-2.4c1.4-1.8,1.7-4.4,5-3.8c0.6,0.9,1.3,1.9,2,3C32.1,15.6,32,16.2,31.5,16.5z
				 M15.7,15.5c1.5-2.3,2.4-5.2,3-7.9c0.3-1.3-0.8-3-1.3-4.8h7.3c-0.8,1.5-1.4,2.6-2,3.9c-0.8,1.8-1.6,3.6-2.4,5.3
				c-0.9,2-1.7,4-2.8,6.6c2-0.4,3.9-0.8,6.2-1.3c0.7,0.4,1.7,1,3.1,1.8c-3.2,3.1-6.8,4.5-11,4.4C13.9,20.7,13.9,18.3,15.7,15.5z
				 M22.7,46.7c-3.1,0-5.9,0.1-8.7,0c-3-0.2-5.5-2.5-5.6-5.6c-0.2-7.6-0.1-15.2-0.1-22.7c4-0.6,5.2,1.9,3.6,6.5c1,2.2,1.8,4.1,2.7,6
				c1.9-1,1.9-1,1.4-4c2.3-0.2,4.6-0.5,7.4-0.8c-1.6,2.5-3,4.8-4.7,7.4c1.4,0.5,2.5,0.9,3.7,1.3c0.6,1.6,1.2,3.1,2.1,5.2
				C24,41.8,23.4,44.1,22.7,46.7z M30.9,25.2c0.8,0.7,1.8,1.5,3,2.5c-1.6,1.4-3,2.7-4.7,4.2c-1.8-0.2-3.8-0.4-6.5-0.7
				c1.7-4.2,4.1-6.7,6-9.6 M41.8,30.6c0.9-0.8,1.8-1.6,2.8-2.4c-4.4-3.1-8.7-6-13.1-9.1c1.4-1.1,2.8-2.2,4.2-3.4
				c-0.2-0.2-0.3-0.4-0.5-0.6c1.4-0.3,2.9-0.6,4.6-1c0.2-1.1,0.4-2.1,0.7-3.4c-1.5,0.2-2.7,0.3-3.8,0.4c-0.8-1.7-1.3-3.3-2.3-4.7
				c-0.8-1.2-3.2-1.1-3.2-3.2c0-0.3,0.3-0.6,0.6-0.6c2.9,0,5.9-0.1,8.8,0c2.7,0.1,4.6,2.1,4.6,4.9c0.1,11,0.2,22,0,33
				c-0.1,4-3.7,6.2-9.2,5.7c-0.4-1.5-0.7-3.2-1.2-5c-1.3-0.9-2.8-1.9-4.5-3c0.1-1.3,0.3-2.5,0.4-4"/>
		</g>
	</g>
</g>
</svg>
